<?xml version="1.0" encoding="iso-8859-1"?>
<!-- Uploaded to: SVG Repo, www.svgrepo.com, Generator: SVG Repo Mixer Tools -->
<!DOCTYPE svg PUBLIC "-//W3C//DTD SVG 1.1//EN" "http://www.w3.org/Graphics/SVG/1.1/DTD/svg11.dtd">
<svg fill="#000000" height="800px" width="800px" version="1.1" id="Capa_1" xmlns="http://www.w3.org/2000/svg" xmlns:xlink="http://www.w3.org/1999/xlink" 
	 viewBox="0 0 303.124 303.124" xml:space="preserve">
<path d="M282.788,0h-99h-56.675h-99C12.349,0,0,19.1,0,43.482c0,21.189,9.324,38.388,22.113,42.53v119.89c0,3.314,2.686,6,6,6h99
	h56.675h99c3.314,0,6-2.686,6-6V86.012c12.789-4.142,22.113-21.341,22.113-42.53C310.901,19.1,298.553,0,282.788,0z
	 M127.113,199.902h-93V80.965c0-3.313-2.687-6-6-6C20.492,74.965,12,62.036,12,43.482S20.492,12,28.113,12h99h56.675
	c7.622,0,16.113,12.929,16.113,31.482s-8.492,31.482-16.113,31.482c-3.314,0-6,2.686-6,6v118.937H127.113z M189.788,199.902V86.965
	h87v112.937H189.788z M282.788,74.965h-79.429c5.292-7.862,8.542-18.975,8.542-31.482c0-12.51-3.256-23.62-8.551-31.482h79.437
	c7.622,0,16.113,12.929,16.113,31.482S290.41,74.965,282.788,74.965z"/>
</svg>